<?xml version="1.0" encoding="UTF-8"?> <svg xmlns="http://www.w3.org/2000/svg" width="540" height="540" viewBox="0 0 540 540"><defs><style> .cls-1 { fill: #fddda3; } .cls-2 { fill: #fba919; } .cls-3 { fill: #183059; } </style></defs><g id="Illos"><g><rect class="cls-1" width="540" height="540"></rect><g><rect class="cls-2" x="121.21" y="121.21" width="297.59" height="297.59" rx="12.72" transform="translate(-111.84 270) rotate(-45)"></rect><path class="cls-3" d="M270,454.23a14.87,14.87,0,0,1-10.57-4.38L90.15,280.57a15,15,0,0,1,0-21.14L259.43,90.15a14.94,14.94,0,0,1,21.14,0L449.85,259.43a15,15,0,0,1,0,21.14L280.57,449.85A14.87,14.87,0,0,1,270,454.23Zm0-364a10.44,10.44,0,0,0-7.42,3.08L93.31,262.58a10.48,10.48,0,0,0,0,14.84L262.58,446.69a10.48,10.48,0,0,0,14.84,0L446.69,277.42a10.51,10.51,0,0,0,0-14.84L277.42,93.31A10.44,10.44,0,0,0,270,90.23Z"></path></g><g><path class="cls-3" d="M338.44,194.63a45.44,45.44,0,0,0-64.27,0L248.81,220a55.83,55.83,0,0,1,6.07-.31,58.86,58.86,0,0,1,18.57,3l14.37-14.36a26.13,26.13,0,0,1,37,37l-28.12,28.11a26.14,26.14,0,0,1-42.52-8.22,13,13,0,0,0-8.49,3.8l-7.49,7.5A46,46,0,0,0,246,287a45.45,45.45,0,0,0,64.28,0l28.12-28.13A45.45,45.45,0,0,0,338.44,194.63Z"></path><path class="cls-3" d="M278.49,313.39a58.27,58.27,0,0,1-18.78-3.09l-14.47,14.47a26.13,26.13,0,1,1-36.94-37l28.11-28.11a26.18,26.18,0,0,1,42.53,8.22,12.93,12.93,0,0,0,8.5-3.79l7.48-7.49A45.47,45.47,0,0,0,222.75,246l-28.11,28.12a45.45,45.45,0,0,0,64.26,64.28l25.32-25.32c-1.89.18-3.8.27-5.72.27Z"></path></g></g></g></svg> 